<?xml version="1.0" encoding="UTF-8"?>
<svg id="Layer_1" xmlns="http://www.w3.org/2000/svg" version="1.1" viewBox="0 0 1045.44 1200.96">
  <!-- Generator: Adobe Illustrator 30.2.1, SVG Export Plug-In . SVG Version: 2.1.1 Build 1)  -->
  <defs>
    <style>
      .st0 {
        fill: #fff;
      }

      .st1 {
        fill: #c5b29b;
      }

      .st2 {
        fill: #b8963c;
      }

      .st3 {
        fill: #fefefe;
      }

      .st4 {
        fill: #c4b19a;
      }
    </style>
  </defs>
  <path class="st0" d="M0,0v1200.96h1045.44V0H0ZM272.76,849.24l21.41-28.41c6.72-8.92,12.96-17.39,17.53-28.2,9.01-21.3,16.26-41.85,23.32-63.45,16.37-50.07,30.14-80.72,53.26-127.72,14.45-29.38,31.34-56.39,51.34-82.22,11.89-15.36,22.91-30.3,35.58-44.99l36.84-42.75,49.96-50.74,41.33-46.77c6.67-11.68,16.37-19.87,26.19-28.64,32.61-29.13,52.42-2.7,84.37-27.89,22.26-17.55,34.93-45.66,35.03-74.15.05-15.66-.98-30.78-4.59-45.86-6.58-14.73-18.82-41.16-35.69-44.91-2.57-.57-5.72.55-7.14,2.49-1.2,1.63-1.12,5.14.39,7.06,8.17,10.37,13.94,21.4,17.57,34.18,8.2,28.86,7.8,68.48-16.8,89.86-14.25,12.38-34.18,13.57-50.85,5.35-3.71-1.83-9.28-3.81-11.19-7.59-7.69-15.12-13.28-30.37-18.92-46.33-3.82-6.43-7.99-13.57-8.17-21.13-.25-10.32,8.17-16.82,16.72-20.25,4.99-2.01,2.88-10.64-1.19-13.17-12.24-7.61-22.67-16.32-33.06-26.34-6.46-6.22-9.92-13.82-7.21-22.98l2.8-9.46c1.4-4.72-1.16-9.73-5.97-11.03-5.54-1.51-11.52-2.17-17.23-1.7-6.93.58-11.98,6.08-12.29,12.9-.4,8.71-1.39,17.11-4.11,25.32-3.43,10.33-6.76,20.27-11.49,30.11-8.91,18.55-21.9,34.29-37.17,47.94-4.52,4.04-11.03,5.55-16.71,2.57-23.65-12.43-36.95-36.85-35.85-63.87.89-21.96,10.85-42.41,26.73-57.3,15.03-14.1,32.81-21.95,52.72-26.27,23.43-5.08,36.29-3.1,60.03.69l25.68,4.09c27.55,4.39,48.22-5.07,84.22,8.07,33.17,12.11,72.98,33.01,95.19,60.79l12.07,15.09c9.22,11.53,18.04,22.82,24.36,36.25,4.87,10.36,9.01,20.33,13.07,31.06l21,55.49c4.23,11.16,8.13,21.6,11.11,33.19l8.21,31.95c.97,3.75-.42,10.26-3.18,12.69-4.2,3.7-10.1,1.72-13.93-1.2-15.24-11.58-30.85-20.99-48.61-28.42-20.92-8.76-42.02-15.46-64.08-20.12-5.07-1.07-9.62,1.96-10.48,6.15-2.46,12.07,13.88,9.61,25.26,15.35l31.34,15.82,39.73,23.66c17.52,10.43,32.27,23.31,46.88,37.34,8.65,8.31,15.69,16.75,22.03,26.94,3.08,4.95,6.1,9.56,7.81,15.34,3.44,11.68,6.65,23.06,7.63,35.34.56,7.07-1.57,13.66-2.29,20.63-1.52,14.7-10.25,27.71-25.17,31.45-12.07,3.02-24.21,3.03-36.74,4.68l-78,10.25c-21.75,2.86-42.02,9.33-62.9,15.61-24.39,7.33-45.04,20.22-64.18,36.52-14.26,12.14-27.01,24.27-39.07,38.58-10.95,13-20.85,25.59-30.94,39.38-13.81,18.87-27.75,36.78-43.74,53.97-44.92,48.3-102.58,81.51-163.21,106.08l-34.94,14.15c-21.51,8.71-40.95,20.47-61.63,31.09-2.85,1.46-7.3.11-9.22-1.91-1.78-1.87-2.76-7.03-.75-9.7ZM597.14,140.13c-.59,2.67-8.72,4.62-16.34,8.07l-17.43,7.91c-8.5,3.86,1.03-20.71,17.41-24.86,11.94-3.02,17.04,5.83,16.36,8.88ZM603.83,160.04c-2.05,5.48-4.6,12.64-11.1,10.53l-13.52-4.4c2.75-6.98,27.74-14.47,24.63-6.12ZM660.61,743.13c-11.58,6.92-26.25,5.32-36.71-3.42-6.48-5.42-7.87-14.6-3.08-20.81,2.65-3.43,7.59-1.6,10.25.53,8.59,6.89,19.46,5.92,26.42-2.57,1.52-1.86,6.15-2.8,8.4-2.25,2.18.54,5.03,3.84,5.33,7.06.76,8.18-3.41,17.17-10.6,21.47ZM666.1,796.95c-2.82,9.45-12.01,16.56-21.12,17.66-10.31,1.25-20.12-2.56-26.04-11.17-2.18-3.17-3.02-7.01-1.79-10.94.88-2.8,3.74-6.31,7.69-7.41,1.64-.45,5.08,1.11,6.51,2.4,6.61,5.95,16.74,5.06,22.68-2.06,2.05-2.46,7.64-.29,9.63,1.63,2.13,2.06,3.51,6.28,2.43,9.89ZM665.48,664.28c-3.06-5.33-3.1-12.06,1.47-16.22,3.29-3,6.93-2.24,9.72,1.06,2.43,2.88,7.23,3.58,10.9,3.88,15.12,1.24,14.75-12.05,24.03-9.03,8.13,2.65,5.22,17.77.14,23.7-7.86,9.17-19.7,10.99-30.58,7.56-6.6-2.08-11.95-4.45-15.68-10.95ZM706.49,578.16c3.31-2.76,6.7-1.99,9.31,1.09,2.5,2.96,7.2,3.78,11.05,4.07,14.61,1.09,13.73-9.78,22.44-9.4,2.07.09,5.37,2.3,5.93,4.7,1.5,6.48.37,13.6-3.63,18.64-7.88,9.94-20.61,11.97-32.19,8.1-7.51-2.52-13.96-6.51-16.37-15.11-1.26-4.5.33-9.48,3.46-12.09ZM683.92,791.62c.07-2.25,1.82-5.38,3.3-6.22s5.67-.85,7.13.05c17.14,10.58,25.3-6.26,33.66-.48,3.08,2.13,4.45,6.04,3.51,9.85-3.08,12.51-14.44,17.9-26.59,16.99-11.33-.85-21.41-6.9-21.01-20.19ZM712.62,747.54c-10.32.29-20.15-4.41-24.2-14.95-1.3-3.39.17-7.66,1.84-10.03,1.71-2.44,6.33-5.72,9.83-3.75,6.28,4.9,14.29,8.31,21.58,2.72,1.65-1.27,4.29-4.22,6.56-4.44,3.43-.33,6.76,2.34,8.13,4.43,1.88,2.87,1.73,7.52.51,10.57-4.03,10.02-13.63,15.15-24.25,15.45ZM736.37,666.53c-4.08-5.58-3.93-11.05.65-15.84,1.19-1.24,3.51-2.99,4.98-3.31,1.77-.38,5.13.97,6.46,2.3,6.34,6.34,15.31,5.5,21.16-.9,2.06-2.25,6.04-2.34,8.54-1.14,2.63,1.27,4.65,4.19,4.86,7.33.48,7.14-2.94,12.29-8.18,16.38-11.96,9.31-29.36,7.63-38.46-4.83ZM776.86,580.47c3.23-3.63,7.59-3.71,10.9-.44,6.27,6.21,15.55,5.48,21.41-1.15,1.87-2.11,6.04-2.06,8.61-.81,6.62,3.23,6.12,14.75-1.4,21.67-8.18,7.53-19.82,10.18-30.28,5.67-6.13-2.65-11.24-7.94-13.22-14.51-1.15-3.83,1.66-7.83,3.98-10.43ZM756.25,721.82c.98-4.36,6.87-5.44,10.2-3.19,16.59,11.23,24.15-7.47,33.86-.07,3.21,2.45,3.73,7,2.28,11.16-4.24,12.12-16.47,16.7-28.78,15.11-11.35-1.47-20.42-10.29-17.55-23.01ZM800.84,654.47c0-2.2,1.48-5.15,2.77-6.09,7.78-5.68,14.16,9.98,31.36-.58,3.5-2.15,7.41-2.21,10.41-.22,3.67,2.44,3.96,6.56,2.81,10.69-3.33,12.02-15.16,16.96-26.99,15.91-10.78-.96-20.3-7.03-20.36-19.71ZM840.27,584.07c.1-1.9,1.83-4.92,3.28-5.83,7.11-4.47,14,10.21,30.8-.21,3.25-2.01,7.71-1.8,10.65.15,3.49,2.32,3.59,6.9,2.31,11-3.42,10.98-13.86,15.82-25.53,15.38-12.31-.47-22.21-7.82-21.51-20.5ZM578.04,814.21c-8.47,1.19-16.9-1.29-24.08-6.06-7.04-4.67-9.71-14.18-5.11-21.24,1.74-2.67,6.24-4.66,8.5-2.37,4.06,4.13,8.51,5.91,14.28,6.06,14.63.39,13.46-11.33,22.09-9.35,2.69.62,5.6,4.01,5.88,7.24,1.13,13.3-8.45,23.86-21.56,25.71ZM223.66,684.89c.44-13.43,1.53-26.2,1.17-39.54l-1.35-49.64,1.02-24.05c2.66-62.99-1.92-89.98,14.38-155.05.62-2.48,3.94-4.17,5.96-3.91,2.34.3,4.72,2.58,4.75,5.33.11,11.33-1.07,21.63-2.06,32.85-1.66,18.74-3.13,36.71-3.12,55.64l.04,97.71,1.41,25.99c.94,17.34,1.79,33.78,4.1,50.97,3.67,27.33,5.15,50.03,2.64,77.53-1.11,12.14-13.68,21.49-22.98,27.11-1.28.77-5.61-.83-5.83-2.32-1.34-9.28-1-18.35-.04-27.54,2.61-25.15-.89-46.5-.08-71.08ZM158.49,402.11c3.42-2.65,9.94-.03,11.24,4.63,3.98,14.2,8.37,27.49,11.58,42.02,7.35,33.28,25.95,136.48,27.43,167.05l1.25,25.86c.72,14.86.2,29.07-.28,43.79l-1.04,31.82-4.75,50.34c-2.25,23.84-3.17,47.09-7.42,70.68-1.96,10.91-7.82,20.1-14.53,28.58-2.63,3.32-10.16,4.71-12.07-.17-2.12-5.39.14-12.18.7-17.73l3.42-33.57c1.33-13.05,1.22-25.38,2.39-38.44l3.97-44.2c1.57-17.45,1.23-34.2,1.16-51.76-.11-26.25-1.28-51.43-2.72-77.62l-2.88-52.38-4.34-38.86c-2.26-20.22-5.24-39.6-8.28-59.65l-6.51-42.93c-.28-1.85.33-6.26,1.69-7.46ZM132.63,908.36c-2.62,5.73-10.19,10.1-15.68,6.97l-8.03-4.58c-6.46-3.68-1.13-17.75-1.09-30.8l.25-73.25c.04-10.78-2.34-20.68-2.94-31.34-1.87-33.53-6.02-65.86-11.03-99.2l-12.17-81.07-6.75-38.83c-1.05-6.04-.83-11.6-2.98-17.48-.95-2.58,0-6.26,2.33-7.1,16.06-5.84,25.77,67.69,28.2,79.27l15.11,72.01,3.26,26.13,4.03,35.68,6.87,59.05c1.26,10.84.19,21.71.36,32.62.28,17.87.63,34.91,2.9,52.65.83,6.52.23,12.96-2.65,19.24ZM142.63,741.43l-1.29-19.08c-.3-4.42-.72-8.61-1.68-12.87-.21-12.72-.93-25.09-2.5-37.95-1.71-14-2.58-27.28-3.16-41.36-.74-18.01-4.3-34.9-6.04-52.83-2.65-27.39-6.37-53.53-11.81-80.52-4.25-21.1-8.6-40.98-15.74-61.34-.61-1.74,1.13-5.27,2.46-6.08,4.32-2.63,9.3,1.91,11.52,7.96,12.3,33.54,20.97,67.51,27.48,102.69l8.4,45.41,7.52,51.6,4.17,39.17c.9,8.47.1,16.7,2.09,24.97l-.15,47.01c-.03,10.06-.9,19.67-1.5,29.64-.59,9.83-.73,19.01-2.62,28.71-.49,2.5-4.03,4.28-6.01,4.21-2.78-.09-5.54-2.3-5.4-6.45.35-10.41-.89-19.56-2.38-29.28-1.73-11.31-2.58-22.24-3.35-33.6ZM151.53,1020.65c-5.21-3.66-5.57-10.55-1.47-15.12l26.26-29.25,38.62-43.77c3.88-4.39,8.89-7.73,12.61-12.42,9.8-12.35,21.5-22.1,35.27-29.85,8.64-4.87,42.97-23.8,50.64-20.15,4.35,2.07,3.35,9.51.24,12.75l-51.89,54.21c-8.67,9.06-16.62,17.63-25.98,25.89-6.35,5.61-11.85,11.59-17.52,17.99l-36.51,41.2c-8.85,9.98-21.35,4.77-30.26-1.5ZM256.41,1026.15c-4.51,2.73-10.21,3.09-15.06,3.75-8.48,1.15-24.89,4.9-24.59-6.27,4.7-8.38,10.39-14.79,17.03-21.59l69.08-70.76c11.97-12.26,23.25-23.73,34.59-36.49,13.25-14.92,26.74-28.52,40.9-42.57,8.43-8.37,36.51-35.3,48.66-29.48,4.99,2.39,5.41,9.15,3.48,13.64-4.95,11.52-8.96,23.25-16.46,33.31-7.56,10.13-17.04,17.96-25.89,26.92l-34.74,35.14-33.91,34.36-45.38,45.64c-5.4,5.43-10.83,10.25-17.7,14.41ZM313.49,1004.41c1.56-4.26,5-7.98,8.21-11.24l45.17-45.9,34.12-35.92c1.69-1.78,4.93-3.29,6.91-3.08,2.03.22,6.03,2.54,6.89,4.58,3.96,9.41.59,18.49-5.64,26.02-16.98,20.52-33.9,40.39-52.16,59.64-19.1,20.13-47.25,16.16-43.49,5.9ZM592.56,1113.9c-1.48.87-4.43.04-5.86-1.89-3.49-4.69-10.27-9.47-15.89-6.73l-13.38,6.5c-20.09,9.76-47.7-8.27-62.31-25.97-1.74-2.11-6.34-1.47-7.97-.15-10.74,8.64,22.77,31.22,28.41,37.13,9.99,10.44,13.06,26.12,8.94,39.58-1.23,4.02-5.82,6.72-10.01,4.87l-.85-9.93c-.61-7.07-6.3-10.89-12.95-10.08-5.63.68-10.37-1.14-13.83-5.32l-11.76-14.21c-10.72-12.95-20.09-20.69-38.21-19.12-5.61.49-11.19,2.06-16.33,3.84-9.59,3.32-18.85,6.16-28.6,8.78-8.14,2.19-15.56,1.35-22.98-2.46-15.36-7.89-21.76,7.31-26.2,8.65-2.54.77-9-5.21-1.4-19.33,3.5-6.5,7.91-11.46,15.67-13.39l28.92-7.2c11.78-2.93,21.41.19,38.61-8.45,4.68-2.35,5.8-6.06,6.64-10.82,3.58-20.4,4.79-40.25,4.73-61.05l-.15-51.67c-.03-10.31-2.23-28.73,5.65-39.15,4.78-6.32,20.49-17.73,27.74-10.58,1.56,1.54,2.95,5.39,2.39,8.19l-4.46,22.42c-3.27,16.46,1.49,58.14,5.9,75.58,2.49,9.83,3.72,19.83,7.3,29.33,3.99,10.58,11.23,20.41,19.37,28.35,11.89,11.6,31.63,10.39,46.97,9.5,7.1-.41,13.47-.97,20.18,1.97,6.83,2.99,12.89,7.12,18.68,11.91,7.11,5.89,13.68,17.03,7.04,20.92ZM859.1,1051.55c-.51,2.09-3.58,4.6-6.05,4.28l-13.81-1.77c-16.09-2.07-14.98,15.9-32.73,14.62l-35.92-2.59c-5.7-.41-10.95-1.2-16.78-1.37-3.64-.1-7.24-1.16-10.07-3.31-13.74-10.44-15.88-7.51-31.25-18.61-2.06-1.49-5.48.16-6.87,1.89-6.68,8.33,13.4,17.57,19.14,20.25,7.41,3.46,11.26,10.53,15.26,17.37,1.52,2.59,1.64,6.03-.33,7.98-2.48,2.45-6.13,1.66-8.31-.98l-6.64-8.07c-1.13-1.37-5.22-1.54-6.52-.43-4.41,3.75-10.04,2.72-12.75-2.11-7.93-14.15-20.11-6.57-27.67-21.97-1.59-2.73.97-17.67-5.92-17.43-8.6.3-2.07,18-17.84,27.38-2.96,1.76-7.36,2.08-10.26,4.28-3.62,2.75-.97,12.3-5.59,13.55-8.58,2.32-9.57-25.15,1.79-37.65l17.84-19.64c7.93-8.73,3.78-19.33-.17-31.22l-20.59-61.89c-2.28-6.87-4.06-15.61-1.71-22.34,3.39-9.68,15.64-12.14,24.15-9.12,2.79.99,7.04,1.32,8.71,3.07,5.33,5.6,1.03,16.32,5.45,32.08,5.74,20.46,12.65,39.95,21.43,59.22,9.23,20.26,25.66,35.27,49.19,34.94,10.79-.15,20.96-1.16,31.65-2.38,10.29-1.18,20.31-1.87,30.7-2.35,6.72-.31,13.55.52,20.18.58,5.26.05,8.76,1.84,12.21,5.63,9.18,10.09,21.95,10.57,20.09,18.14ZM940.58,587.64c-3.42,29.59-10.18,57.39-21.68,85.03-41.28,99.2-129.68,170.99-232.32,200.04-36.61,10.36-74.38,15.48-112.34,14.91-29.03-.44-56.73-4.39-84.94-11.16-3.96-.95-5.36-4.31-5.07-6.89.41-3.7,3.93-5.24,7.99-4.42,26.12,5.25,51.49,9.96,78.54,10.46,105.33,1.95,208.64-38.67,279.5-117.33,45.04-50,73.37-111.42,78.97-178.75,1.23-14.76.29-28.69-.78-43.32-.27-3.72.61-8.53,2.2-10.92.99-1.48,5-1.97,6.32-1.28,1.32.69,3.25,3.02,3.62,4.9,3.82,19.64,2.29,38.86,0,58.74Z"/>
  <path class="st2" d="M163.32,452.5c3.04,20.05,6.02,39.42,8.28,59.65l4.34,38.86,2.88,52.38c1.44,26.19,2.62,51.37,2.72,77.62.07,17.57.4,34.31-1.16,51.76l-3.97,44.2c-1.17,13.06-1.06,25.39-2.39,38.44l-3.42,33.57c-.57,5.55-2.82,12.34-.7,17.73,1.92,4.88,9.44,3.49,12.07.17,6.71-8.48,12.56-17.67,14.53-28.58,4.25-23.59,5.17-46.84,7.42-70.68l4.75-50.34,1.04-31.82c.48-14.72,1-28.93.28-43.79l-1.25-25.86c-1.48-30.57-20.08-133.77-27.43-167.05-3.21-14.54-7.6-27.83-11.58-42.02-1.31-4.66-7.82-7.28-11.24-4.63-1.36,1.2-1.97,5.61-1.69,7.46l6.51,42.93Z"/>
  <path class="st2" d="M132.38,836.46c-.17-10.91.9-21.78-.36-32.62l-6.87-59.05-4.03-35.68-3.26-26.13-15.11-72.01c-2.43-11.58-12.14-85.11-28.2-79.27-2.33.85-3.28,4.52-2.33,7.1,2.16,5.88,1.93,11.44,2.98,17.48l6.75,38.83,12.17,81.07c5.01,33.34,9.16,65.67,11.03,99.2.59,10.66,2.97,20.56,2.94,31.34l-.25,73.25c-.04,13.05-5.38,27.11,1.09,30.8l8.03,4.58c5.49,3.13,13.06-1.24,15.68-6.97,2.88-6.29,3.49-12.72,2.65-19.24-2.27-17.74-2.62-34.79-2.9-52.65Z"/>
  <path class="st2" d="M223.78,783.52c.22,1.49,4.55,3.09,5.83,2.32,9.3-5.62,21.87-14.97,22.98-27.11,2.51-27.5,1.03-50.2-2.64-77.53-2.31-17.19-3.15-33.63-4.1-50.97l-1.41-25.99-.04-97.71c0-18.93,1.46-36.9,3.12-55.64.99-11.21,2.18-21.52,2.06-32.85-.03-2.75-2.41-5.04-4.75-5.33-2.02-.26-5.34,1.43-5.96,3.91-16.3,65.07-11.72,92.06-14.38,155.05l-1.02,24.05,1.35,49.64c.36,13.34-.72,26.11-1.17,39.54-.81,24.58,2.69,45.93.08,71.08-.96,9.19-1.3,18.26.04,27.54Z"/>
  <path class="st2" d="M148.35,804.31c-.14,4.15,2.62,6.36,5.4,6.45,1.98.07,5.52-1.71,6.01-4.21,1.89-9.7,2.04-18.88,2.62-28.71.6-9.96,1.46-19.58,1.5-29.64l.15-47.01c-1.99-8.27-1.18-16.49-2.09-24.97l-4.17-39.17-7.52-51.6-8.4-45.41c-6.5-35.17-15.18-69.14-27.48-102.69-2.22-6.06-7.2-10.59-11.52-7.96-1.33.81-3.07,4.34-2.46,6.08,7.14,20.36,11.49,40.23,15.74,61.34,5.44,26.99,9.16,53.12,11.81,80.52,1.74,17.93,5.3,34.82,6.04,52.83.58,14.08,1.45,27.36,3.16,41.36,1.57,12.86,2.3,25.23,2.5,37.95.96,4.26,1.38,8.45,1.68,12.87l1.29,19.08c.77,11.36,1.61,22.29,3.35,33.6,1.49,9.72,2.73,18.88,2.38,29.28Z"/>
  <path class="st4" d="M585.52,1092.97c-5.79-4.79-11.84-8.92-18.68-11.91-6.71-2.94-13.08-2.38-20.18-1.97-15.34.89-35.08,2.1-46.97-9.5-8.14-7.94-15.38-17.77-19.37-28.35-3.58-9.5-4.81-19.51-7.3-29.33-4.42-17.44-9.18-59.12-5.9-75.58l4.46-22.42c.56-2.79-.83-6.65-2.39-8.19-7.26-7.15-22.97,4.26-27.74,10.58-7.88,10.42-5.68,28.84-5.65,39.15l.15,51.67c.06,20.8-1.15,40.65-4.73,61.05-.84,4.77-1.96,8.47-6.64,10.82-17.2,8.64-26.84,5.52-38.61,8.45l-28.92,7.2c-7.75,1.93-12.17,6.89-15.67,13.39-7.6,14.11-1.14,20.09,1.4,19.33,4.44-1.34,10.84-16.54,26.2-8.65,7.42,3.81,14.84,4.65,22.98,2.46,9.75-2.62,19.01-5.47,28.6-8.78,5.14-1.78,10.72-3.35,16.33-3.84,18.12-1.57,27.49,6.17,38.21,19.12l11.76,14.21c3.46,4.18,8.2,6,13.83,5.32,6.65-.8,12.35,3.01,12.95,10.08l.85,9.93c4.19,1.85,8.78-.84,10.01-4.87,4.11-13.47,1.04-29.14-8.94-39.58-5.65-5.91-39.16-28.48-28.41-37.13,1.64-1.32,6.23-1.96,7.97.15,14.61,17.7,42.22,35.73,62.31,25.97l13.38-6.5c5.63-2.73,12.41,2.04,15.89,6.73,1.43,1.93,4.38,2.76,5.86,1.89,6.63-3.89.07-15.03-7.04-20.92Z"/>
  <path class="st4" d="M839.01,1033.42c-3.45-3.79-6.95-5.58-12.21-5.63-6.63-.06-13.46-.89-20.18-.58-10.39.48-20.41,1.17-30.7,2.35-10.69,1.22-20.87,2.23-31.65,2.38-23.53.33-39.96-14.68-49.19-34.94-8.78-19.27-15.69-38.75-21.43-59.22-4.42-15.76-.12-26.48-5.45-32.08-1.67-1.75-5.92-2.08-8.71-3.07-8.51-3.02-20.75-.56-24.15,9.12-2.36,6.73-.58,15.47,1.71,22.34l20.59,61.89c3.96,11.89,8.1,22.49.17,31.22l-17.84,19.64c-11.35,12.5-10.37,39.97-1.79,37.65,4.62-1.25,1.97-10.81,5.59-13.55,2.9-2.2,7.31-2.52,10.26-4.28,15.77-9.38,9.24-27.09,17.84-27.38,6.89-.24,4.33,14.7,5.92,17.43,7.57,15.4,19.74,7.83,27.67,21.97,2.71,4.83,8.33,5.86,12.75,2.11,1.31-1.11,5.39-.94,6.52.43l6.64,8.07c2.18,2.64,5.83,3.43,8.31.98,1.97-1.95,1.85-5.38.33-7.98-4-6.84-7.85-13.91-15.26-17.37-5.74-2.68-25.81-11.92-19.14-20.25,1.39-1.73,4.81-3.38,6.87-1.89,15.37,11.1,17.51,8.17,31.25,18.61,2.83,2.15,6.44,3.21,10.07,3.31,5.83.16,11.08.95,16.78,1.37l35.92,2.59c17.75,1.28,16.64-16.68,32.73-14.62l13.81,1.77c2.47.32,5.54-2.19,6.05-4.28,1.86-7.56-10.91-8.04-20.09-18.14Z"/>
  <path class="st4" d="M353.41,931.74l34.74-35.14c8.85-8.96,18.34-16.79,25.89-26.92,7.5-10.06,11.51-21.79,16.46-33.31,1.93-4.49,1.5-11.25-3.48-13.64-12.15-5.82-40.23,21.12-48.66,29.48-14.16,14.06-27.66,27.65-40.9,42.57-11.34,12.77-22.62,24.23-34.59,36.49l-69.08,70.76c-6.64,6.8-12.32,13.21-17.03,21.59-.3,11.17,16.11,7.42,24.59,6.27,4.85-.66,10.55-1.02,15.06-3.75,6.88-4.16,12.3-8.98,17.7-14.41l45.38-45.64,33.91-34.36Z"/>
  <path class="st4" d="M936.97,523.99c-1.32-.69-5.33-.2-6.32,1.28-1.59,2.39-2.47,7.2-2.2,10.92,1.07,14.62,2.01,28.56.78,43.32-5.6,67.34-33.93,128.75-78.97,178.75-70.86,78.66-174.17,119.28-279.5,117.33-27.05-.5-52.43-5.22-78.54-10.46-4.06-.82-7.58.72-7.99,4.42-.28,2.59,1.12,5.95,5.07,6.89,28.2,6.76,55.91,10.72,84.94,11.16,37.96.57,75.73-4.55,112.34-14.91,102.64-29.04,191.04-100.83,232.32-200.04,11.5-27.63,18.27-55.44,21.68-85.03,2.3-19.88,3.82-39.1,0-58.74-.37-1.88-2.29-4.22-3.62-4.9Z"/>
  <path class="st4" d="M235.83,962.96c9.36-8.26,17.3-16.84,25.98-25.89l51.89-54.21c3.11-3.25,4.11-10.69-.24-12.75-7.67-3.65-42.01,15.28-50.64,20.15-13.77,7.76-25.47,17.5-35.27,29.85-3.72,4.69-8.73,8.03-12.61,12.42l-38.62,43.77-26.26,29.25c-4.1,4.57-3.75,11.46,1.47,15.12,8.92,6.26,21.42,11.48,30.26,1.5l36.51-41.2c5.67-6.39,11.17-12.38,17.52-17.99Z"/>
  <path class="st4" d="M356.98,998.51c18.26-19.25,35.18-39.12,52.16-59.64,6.23-7.53,9.61-16.62,5.64-26.02-.86-2.04-4.85-4.36-6.89-4.58-1.98-.21-5.22,1.3-6.91,3.08l-34.12,35.92-45.17,45.9c-3.21,3.26-6.65,6.98-8.21,11.24-3.76,10.27,24.4,14.24,43.49-5.9Z"/>
  <path class="st4" d="M711.74,667.67c5.09-5.93,8-21.05-.14-23.7-9.28-3.02-8.91,10.27-24.03,9.03-3.67-.3-8.47-1-10.9-3.88-2.78-3.3-6.43-4.06-9.72-1.06-4.57,4.17-4.54,10.89-1.47,16.22,3.73,6.5,9.08,8.86,15.68,10.95,10.88,3.43,22.71,1.62,30.58-7.56Z"/>
  <path class="st4" d="M671.22,721.66c-.3-3.22-3.14-6.52-5.33-7.06-2.25-.55-6.88.39-8.4,2.25-6.96,8.49-17.82,9.45-26.42,2.57-2.66-2.13-7.61-3.96-10.25-.53-4.79,6.21-3.4,15.4,3.08,20.81,10.46,8.74,25.13,10.34,36.71,3.42,7.19-4.3,11.37-13.29,10.6-21.47Z"/>
  <path class="st4" d="M719.4,605.36c11.58,3.88,24.3,1.85,32.19-8.1,4-5.05,5.14-12.16,3.63-18.64-.56-2.4-3.86-4.61-5.93-4.7-8.71-.39-7.84,10.49-22.44,9.4-3.85-.29-8.55-1.11-11.05-4.07-2.61-3.08-6-3.85-9.31-1.09-3.13,2.61-4.72,7.59-3.46,12.09,2.41,8.6,8.86,12.59,16.37,15.11Z"/>
  <path class="st4" d="M593.73,781.26c-8.64-1.98-7.46,9.74-22.09,9.35-5.78-.15-10.22-1.94-14.28-6.06-2.26-2.3-6.76-.3-8.5,2.37-4.6,7.05-1.93,16.56,5.11,21.24,7.19,4.77,15.62,7.25,24.08,6.06,13.11-1.85,22.7-12.41,21.56-25.71-.27-3.22-3.19-6.62-5.88-7.24Z"/>
  <path class="st4" d="M736.36,721.53c-1.37-2.09-4.7-4.77-8.13-4.43-2.27.22-4.91,3.17-6.56,4.44-7.28,5.59-15.3,2.18-21.58-2.72-3.5-1.98-8.12,1.31-9.83,3.75-1.67,2.38-3.14,6.65-1.84,10.03,4.05,10.54,13.88,15.24,24.2,14.95,10.62-.3,20.22-5.43,24.25-15.45,1.23-3.05,1.37-7.69-.51-10.57Z"/>
  <path class="st4" d="M654.04,785.43c-5.94,7.13-16.07,8.01-22.68,2.06-1.43-1.29-4.88-2.85-6.51-2.4-3.95,1.09-6.81,4.61-7.69,7.41-1.23,3.93-.39,7.77,1.79,10.94,5.92,8.61,15.74,12.42,26.04,11.17,9.11-1.1,18.29-8.21,21.12-17.66,1.08-3.61-.3-7.83-2.43-9.89-1.99-1.92-7.58-4.09-9.63-1.63Z"/>
  <path class="st4" d="M774.83,671.36c5.24-4.09,8.66-9.24,8.18-16.38-.21-3.15-2.23-6.07-4.86-7.33-2.5-1.2-6.48-1.11-8.54,1.14-5.85,6.4-14.83,7.24-21.16.9-1.33-1.33-4.69-2.67-6.46-2.3-1.47.31-3.79,2.06-4.98,3.31-4.57,4.79-4.72,10.26-.65,15.84,9.1,12.46,26.5,14.14,38.46,4.83Z"/>
  <path class="st4" d="M786.1,605.41c10.46,4.51,22.09,1.86,30.28-5.67,7.52-6.92,8.03-18.44,1.4-21.67-2.56-1.25-6.74-1.3-8.61.81-5.86,6.63-15.14,7.36-21.41,1.15-3.3-3.27-7.66-3.18-10.9.44-2.32,2.6-5.13,6.6-3.98,10.43,1.98,6.57,7.09,11.86,13.22,14.51Z"/>
  <path class="st4" d="M773.8,744.83c12.31,1.59,24.54-2.99,28.78-15.11,1.46-4.16.94-8.7-2.28-11.16-9.7-7.4-17.26,11.31-33.86.07-3.33-2.26-9.22-1.18-10.2,3.19-2.87,12.72,6.2,21.54,17.55,23.01Z"/>
  <path class="st4" d="M821.19,674.18c11.83,1.05,23.66-3.89,26.99-15.91,1.15-4.13.86-8.25-2.81-10.69-3-1.99-6.91-1.93-10.41.22-17.2,10.55-23.58-5.1-31.36.58-1.29.94-2.78,3.89-2.77,6.09.05,12.69,9.57,18.76,20.36,19.71Z"/>
  <path class="st4" d="M704.93,811.81c12.15.91,23.5-4.48,26.59-16.99.94-3.8-.43-7.71-3.51-9.85-8.36-5.79-16.52,11.05-33.66.48-1.46-.9-5.65-.89-7.13-.05s-3.23,3.97-3.3,6.22c-.4,13.29,9.68,19.34,21.01,20.19Z"/>
  <path class="st4" d="M887.32,589.18c1.28-4.1,1.18-8.68-2.31-11-2.95-1.96-7.41-2.17-10.65-.15-16.81,10.42-23.69-4.26-30.8.21-1.45.91-3.17,3.93-3.28,5.83-.69,12.68,9.2,20.03,21.51,20.5,11.67.44,22.11-4.4,25.53-15.38Z"/>
  <path class="st4" d="M282.73,860.85c20.68-10.62,40.12-22.38,61.63-31.09l34.94-14.15c60.63-24.56,118.29-57.77,163.21-106.08,15.98-17.19,29.93-35.1,43.74-53.97,10.09-13.79,19.98-26.38,30.94-39.38,12.06-14.31,24.81-26.44,39.07-38.58,19.13-16.29,39.79-29.19,64.18-36.52,20.88-6.28,41.15-12.75,62.9-15.61l78-10.25c12.53-1.65,24.67-1.66,36.74-4.68,14.92-3.74,23.65-16.74,25.17-31.45.72-6.97,2.85-13.57,2.29-20.63-.98-12.29-4.19-23.67-7.63-35.34-1.7-5.78-4.73-10.39-7.81-15.34-6.34-10.19-13.37-18.62-22.03-26.94-14.61-14.03-29.36-26.91-46.88-37.34l-39.73-23.66-31.34-15.82c-11.38-5.74-27.72-3.28-25.26-15.35.85-4.19,5.41-7.22,10.48-6.15,22.06,4.66,43.16,11.36,64.08,20.12,17.76,7.44,33.37,16.84,48.61,28.42,3.84,2.92,9.74,4.89,13.93,1.2,2.75-2.43,4.14-8.94,3.18-12.69l-8.21-31.95c-2.98-11.59-6.88-22.02-11.11-33.19l-21-55.49c-4.06-10.73-8.2-20.71-13.07-31.06-6.31-13.43-15.14-24.72-24.36-36.25l-12.07-15.09c-22.21-27.78-62.02-48.68-95.19-60.79-36-13.14-56.67-3.68-84.22-8.07l-25.68-4.09c-23.74-3.78-36.6-5.76-60.03-.69-19.91,4.31-37.69,12.17-52.72,26.27-15.88,14.89-25.84,35.33-26.73,57.3-1.1,27.02,12.21,51.44,35.85,63.87,5.68,2.99,12.19,1.48,16.71-2.57,15.27-13.64,28.26-29.38,37.17-47.94,4.72-9.84,8.06-19.78,11.49-30.11,2.72-8.2,3.71-16.6,4.11-25.32.31-6.82,5.35-12.32,12.29-12.9,5.71-.48,11.69.19,17.23,1.7,4.8,1.31,7.36,6.32,5.97,11.03l-2.8,9.46c-2.71,9.16.76,16.76,7.21,22.98,10.39,10.01,20.82,18.72,33.06,26.34,4.07,2.53,6.18,11.17,1.19,13.17-8.55,3.44-16.96,9.94-16.72,20.25.18,7.56,4.35,14.7,8.17,21.13,5.64,15.95,11.23,31.21,18.92,46.33,1.92,3.77,7.49,5.76,11.19,7.59,16.68,8.22,36.61,7.03,50.85-5.35,24.6-21.38,25-60.99,16.8-89.86-3.63-12.78-9.4-23.81-17.57-34.18-1.51-1.92-1.59-5.43-.39-7.06,1.42-1.94,4.57-3.06,7.14-2.49,16.88,3.75,29.12,30.18,35.69,44.91,3.61,15.08,4.64,30.2,4.59,45.86-.1,28.48-12.77,56.59-35.03,74.15-31.94,25.19-51.75-1.24-84.37,27.89-9.82,8.77-19.52,16.95-26.19,28.64l-41.33,46.77-49.96,50.74-36.84,42.75c-12.66,14.69-23.68,29.63-35.58,44.99-19.99,25.83-36.89,52.84-51.34,82.22-23.11,46.99-36.88,77.65-53.26,127.72-7.07,21.6-14.32,42.16-23.32,63.45-4.57,10.81-10.81,19.28-17.53,28.2l-21.41,28.41c-2.01,2.67-1.03,7.83.75,9.7,1.92,2.02,6.37,3.37,9.22,1.91ZM470.53,121.86c-1.15-.39-1.89-3.19-1.25-4.48l16.02-32c.6-1.2,3.92-2.37,5.07-1.81,1.15.57,2.02,3.94,1.33,5.27l-16.56,31.86c-.5.97-3.66,1.47-4.62,1.15ZM483.75,151.55l-6.5-3.25,35.55-71.02,6.5,3.25-35.55,71.02ZM499.05,172.72l-6.52-3.21,44.65-90.59,6.52,3.21-44.65,90.59ZM670.8,147.85c-11.27,0-20.4-9.13-20.4-20.4s9.13-20.4,20.4-20.4,20.4,9.13,20.4,20.4-9.13,20.4-20.4,20.4ZM722.56,92.11c-7.57,10.32-33.56-17.26-63.11-15.08l-28.52,2.1c-1.66.12-4.37-1.19-5.24-2.32-1.02-1.34-1.43-4.34-.9-6.09,1.38-4.56,4.63-6.69,8.72-7.9,12.26-3.62,24.27-2.67,36.73-.37,18.14,3.35,35.1,9.3,50.3,19.76,3.64,2.5,4.15,6.99,2.01,9.9ZM683.5,456.38c1.51-5.27,7.92-6.3,11.98-3.81,15.25,9.38,22.16-4.79,31.06-1.78,2.3.78,5.73,3.67,6.1,6.62.77,6.15-1.93,12.02-6.1,15.96-7.57,7.13-17.42,8.74-27.78,6.1-10.72-2.73-18.25-12.64-15.26-23.1ZM626.8,451.77c2.49,0,4.63,2.19,7.19,4.03,3.84,2.76,11.44,2.81,15.33.03,2.52-1.8,4.59-5.06,7.74-5.16,3.48-.11,6.86,2.37,8.41,4.75,1.76,2.71,2.3,7.37,1.09,10.79-3.99,11.26-15.1,17.41-26.81,17.04-10.92-.35-20.74-6.25-24.29-17.46-1.32-4.15,3.34-14.01,11.35-14.02ZM612.99,522.36c2.47-2.22,6.85-3.06,10.08-1.02,16.52,10.48,24.29-8.22,34.04-.21,3.89,3.19,4.27,7.91,2.46,12.78-4.26,11.46-15.76,16.27-27.49,15.3-10.55-.88-18.89-5.84-21.55-17.21-.83-3.56-.1-7.33,2.46-9.64ZM592.29,610.69c-6.57,4.83-13.57,5.69-22.11,4.27-11.15-1.85-19.33-9.63-18.41-21.18.18-2.29,1.83-5.34,3.53-6.44,2.09-1.35,6.12-1.54,8.26-.16,17.04,11.02,24.9-8.23,34.86.27,7,5.98,1.74,17.45-6.13,23.23ZM549.22,452.44c2.57-2.72,6.77-2.86,9.41-.32,7.97,7.69,19.39,7.16,26.73-.98,3.12-3.46,10.71-4.61,13.1-.28,5.8,10.49.23,22.06-9.36,27.98-14.21,8.76-38.59,3.23-43.57-13.81-1.37-4.7.68-9.38,3.69-12.57ZM547.84,522.9c2.94-2.65,7.71-3.55,10.82-.6,3.26,3.09,6.91,4.89,11.51,4.75,3.86-.11,7.26-2.68,10.49-5.53,3.7-3.27,8.25-1.53,11.42,1.36,3.13,2.86,3.89,7.29,2.19,12.18-3.13,8.99-12.3,15.34-20.87,16.88-10.44,1.87-20.69-2.31-27.18-10.65-4.78-6.15-3.74-13.56,1.63-18.38ZM535.17,601.6c-3.5,9.04-12.92,15.5-21.97,16.63-10.36,1.28-20.37-3.14-26.34-11.34-4.56-6.26-3.04-14.46,3.15-18.74,3.79-2.61,8.09-1.7,11.25,1.26,5.54,5.17,13.15,4.87,18.58-.43,2.61-2.55,6.68-4.06,10.13-2.24,6.06,3.19,7.53,8.89,5.21,14.86ZM475.25,523.06c1.51-2.63,7.3-5.9,10.03-3.12,6.55,6.66,17.06,9.31,24.73,2.51,2.94-2.61,6.92-7.02,11.44-5.72,6.96,2,8.64,10.39,6.06,16.48-1.75,4.12-3.32,8.81-6.54,11.56-11.05,9.42-25.51,9.14-37.96,1.9-8.74-5.09-12.95-14.57-7.77-23.6ZM473.53,658.83c6.98-3.5,13.11,10.62,29.58.52,2.7-1.65,7.42-2.1,10.52-.63,2.29,1.09,5.05,4.67,4.83,8.35-.95,15.6-17.49,23.75-34.01,19.72-10.44-2.54-18.2-12.15-15.48-23.12.42-1.7,3.09-4.12,4.55-4.85ZM416.09,589.73c1.58-2.98,7.01-6.42,9.95-3.58,6.56,6.33,16.94,9.16,24.69,2.65,3.17-2.66,7.19-7.36,11.92-5.88,7.02,2.18,8.08,10.26,6.09,16.19-2.37,7.05-5.59,12.56-12.7,15.67-4,1.75-9.02,3.86-13.57,3.41-6.98-.7-14.43-2.66-20.3-6.71-7.52-5.18-10.07-14.28-6.09-21.74ZM405.45,661.89c4.54-4.5,9.2-3.17,13.4.62,4.28,3.87,13.24,3.48,17.31-.44,2.85-2.74,5.62-5.16,9.48-3.67,6.4,2.46,8.69,9.83,6.08,16.21-3.96,9.69-13.51,15.26-23.98,15.93-12.16.77-23.56-5.96-26.92-18.3-.92-3.37,2.51-8.26,4.62-10.35ZM378.91,726.36c3.41-1.39,6.57.36,8.65,2.36,6.91,6.62,15.55,3.83,21.37-2.24,3.13-3.27,8.78-.15,11.1,2.22,2.69,2.74,3.49,7.43,1.75,11.85-4.99,12.71-20.03,20.07-33.47,16.3-7.27-2.04-13.92-7.47-17.04-14.79-2.77-6.5,2.09-13.44,7.64-15.69Z"/>
  <path class="st4" d="M580.78,131.25c-16.38,4.15-25.91,28.71-17.41,24.86l17.43-7.91c7.62-3.46,15.75-5.41,16.34-8.07.68-3.04-4.42-11.9-16.36-8.88Z"/>
  <path class="st1" d="M579.2,166.17l13.52,4.4c6.5,2.12,9.06-5.05,11.1-10.53,3.12-8.35-21.88-.86-24.63,6.12Z"/>
  <path class="st0" d="M720.55,82.21c-15.2-10.46-32.16-16.41-50.3-19.76-12.45-2.3-24.46-3.25-36.73.37-4.09,1.21-7.35,3.33-8.72,7.9-.53,1.76-.12,4.76.9,6.09.86,1.13,3.57,2.44,5.24,2.32l28.52-2.1c29.55-2.17,55.54,25.41,63.11,15.08,2.14-2.91,1.63-7.4-2.01-9.9Z"/>
  <path class="st0" d="M483.02,546.66c12.45,7.25,26.91,7.53,37.96-1.9,3.22-2.75,4.79-7.44,6.54-11.56,2.58-6.09.9-14.48-6.06-16.48-4.52-1.3-8.5,3.11-11.44,5.72-7.67,6.8-18.18,4.15-24.73-2.51-2.73-2.78-8.52.5-10.03,3.12-5.19,9.03-.98,18.51,7.77,23.6Z"/>
  <path class="st0" d="M422.18,611.47c5.87,4.04,13.31,6.01,20.3,6.71,4.55.46,9.58-1.66,13.57-3.41,7.1-3.11,10.33-8.62,12.7-15.67,1.99-5.93.93-14.01-6.09-16.19-4.74-1.47-8.76,3.22-11.92,5.88-7.75,6.51-18.13,3.68-24.69-2.65-2.94-2.84-8.37.61-9.95,3.58-3.97,7.46-1.42,16.56,6.09,21.74Z"/>
  <path class="st0" d="M589.1,478.83c9.6-5.92,15.16-17.49,9.36-27.98-2.39-4.33-9.99-3.17-13.1.28-7.35,8.14-18.76,8.67-26.73.98-2.63-2.54-6.84-2.4-9.41.32-3.01,3.19-5.06,7.88-3.69,12.57,4.98,17.04,29.36,22.58,43.57,13.81Z"/>
  <path class="st0" d="M519.83,588.98c-5.42,5.3-13.03,5.6-18.58.43-3.16-2.95-7.46-3.87-11.25-1.26-6.19,4.27-7.7,12.48-3.15,18.74,5.97,8.2,15.98,12.62,26.34,11.34,9.05-1.12,18.47-7.59,21.97-16.63,2.31-5.98.84-11.67-5.21-14.86-3.44-1.82-7.52-.31-10.13,2.24Z"/>
  <path class="st0" d="M573.39,551.93c8.57-1.54,17.74-7.89,20.87-16.88,1.7-4.89.95-9.32-2.19-12.18-3.17-2.89-7.72-4.63-11.42-1.36-3.23,2.85-6.63,5.42-10.49,5.53-4.59.14-8.25-1.66-11.51-4.75-3.11-2.95-7.87-2.05-10.82.6-5.36,4.83-6.4,12.23-1.63,18.38,6.48,8.35,16.73,12.52,27.18,10.65Z"/>
  <path class="st0" d="M427.74,690.54c10.46-.66,20.02-6.24,23.98-15.93,2.61-6.38.32-13.75-6.08-16.21-3.87-1.49-6.64.93-9.48,3.67-4.07,3.91-13.03,4.31-17.31.44-4.19-3.79-8.85-5.11-13.4-.62-2.12,2.09-5.54,6.98-4.62,10.35,3.36,12.34,14.76,19.07,26.92,18.3Z"/>
  <path class="st0" d="M639.75,483.25c11.71.37,22.82-5.78,26.81-17.04,1.21-3.41.67-8.07-1.09-10.79-1.54-2.38-4.93-4.86-8.41-4.75-3.16.1-5.22,3.36-7.74,5.16-3.89,2.78-11.49,2.73-15.33-.03-2.56-1.84-4.7-4.03-7.19-4.03-8.01,0-12.66,9.87-11.35,14.02,3.56,11.21,13.37,17.11,24.29,17.46Z"/>
  <path class="st0" d="M388.31,756.84c13.44,3.77,28.48-3.59,33.47-16.3,1.74-4.42.94-9.11-1.75-11.85-2.32-2.36-7.97-5.48-11.1-2.22-5.82,6.07-14.46,8.87-21.37,2.24-2.09-2-5.24-3.74-8.65-2.36-5.55,2.25-10.42,9.19-7.64,15.69,3.13,7.32,9.77,12.75,17.04,14.79Z"/>
  <path class="st0" d="M484.45,686.8c16.52,4.02,33.06-4.12,34.01-19.72.23-3.68-2.54-7.26-4.83-8.35-3.09-1.48-7.82-1.03-10.52.63-16.47,10.1-22.61-4.02-29.58-.52-1.46.73-4.13,3.15-4.55,4.85-2.72,10.97,5.04,20.58,15.48,23.12Z"/>
  <path class="st0" d="M698.76,479.48c10.35,2.64,20.21,1.03,27.78-6.1,4.17-3.93,6.87-9.81,6.1-15.96-.37-2.95-3.8-5.84-6.1-6.62-8.91-3.01-15.82,11.16-31.06,1.78-4.06-2.5-10.47-1.47-11.98,3.81-3,10.46,4.54,20.36,15.26,23.1Z"/>
  <path class="st0" d="M598.42,587.46c-9.96-8.5-17.82,10.75-34.86-.27-2.13-1.38-6.16-1.19-8.26.16-1.7,1.1-3.35,4.14-3.53,6.44-.92,11.55,7.26,19.33,18.41,21.18,8.53,1.41,15.53.55,22.11-4.27,7.87-5.78,13.13-17.25,6.13-23.23Z"/>
  <path class="st0" d="M632.08,549.21c11.73.97,23.23-3.84,27.49-15.3,1.81-4.87,1.43-9.58-2.46-12.78-9.74-8-17.52,10.7-34.04.21-3.22-2.05-7.61-1.21-10.08,1.02-2.56,2.31-3.29,6.08-2.46,9.64,2.66,11.37,11,16.33,21.55,17.21Z"/>
  <path class="st0" d="M670.8,107.04c-11.27,0-20.4,9.13-20.4,20.4s9.13,20.4,20.4,20.4,20.4-9.13,20.4-20.4-9.13-20.4-20.4-20.4ZM679.42,130.44c-2.22,5.01-9.14,7.8-14.84,4.08-3.8-2.47-3.9-7.57-2.45-10.99,1.59-3.76,5.46-7.34,10.11-6.61,6.36,1,9.64,7.99,7.18,13.52Z"/>
  <rect class="st3" x="467.62" y="122.18" width="101" height="7.27" transform="translate(176.18 534.9) rotate(-63.76)"/>
  <rect class="st3" x="458.56" y="110.78" width="79.42" height="7.27" transform="translate(172.92 508.76) rotate(-63.41)"/>
  <path class="st0" d="M490.37,83.58c-1.15-.57-4.47.6-5.07,1.81l-16.02,32c-.65,1.29.1,4.08,1.25,4.48.96.33,4.11-.18,4.62-1.15l16.56-31.86c.69-1.33-.18-4.71-1.33-5.27Z"/>
  <path class="st4" d="M672.25,116.92c-4.66-.73-8.53,2.85-10.11,6.61-1.44,3.42-1.34,8.52,2.45,10.99,5.7,3.72,12.62.94,14.84-4.08,2.46-5.54-.81-12.52-7.18-13.52Z"/>
</svg>